<?xml version="1.0" encoding="UTF-8"?><svg xmlns="http://www.w3.org/2000/svg" xmlns:xlink="http://www.w3.org/1999/xlink" contentScriptType="text/ecmascript" width="375pt" zoomAndPan="magnify" contentStyleType="text/css" viewBox="0 0 375 374.999991" height="374.999991pt" preserveAspectRatio="xMidYMid meet" version="1.2"><defs><g/><clipPath xml:id="clip1" id="clip1"><path d="M 235 143.074219 L 305.96875 143.074219 L 305.96875 241.324219 L 235 241.324219 Z M 235 143.074219 "/></clipPath><clipPath xml:id="clip2" id="clip2"><path d="M 234.71875 143.074219 L 293 143.074219 L 293 241.324219 L 234.71875 241.324219 Z M 234.71875 143.074219 "/></clipPath><clipPath xml:id="clip3" id="clip3"><path d="M 249 143.074219 L 258 143.074219 L 258 209 L 249 209 Z M 249 143.074219 "/></clipPath><clipPath xml:id="clip4" id="clip4"><path d="M 249 199 L 305.96875 199 L 305.96875 241 L 249 241 Z M 249 199 "/></clipPath></defs><g xml:id="surface1" id="surface1"><path style=" stroke:none;fill-rule:nonzero;fill:rgb(100%,100%,100%);fill-opacity:1;" d="M 187.5 0 C 184.429688 0 181.363281 0.0742188 178.300781 0.226562 C 175.234375 0.375 172.175781 0.601562 169.121094 0.902344 C 166.066406 1.203125 163.023438 1.578125 159.988281 2.03125 C 156.953125 2.480469 153.929688 3.003906 150.921875 3.601562 C 147.910156 4.203125 144.917969 4.875 141.941406 5.617188 C 138.964844 6.363281 136.007812 7.183594 133.070312 8.074219 C 130.136719 8.964844 127.222656 9.925781 124.332031 10.960938 C 121.445312 11.996094 118.582031 13.097656 115.746094 14.273438 C 112.910156 15.445312 110.105469 16.691406 107.332031 18.003906 C 104.558594 19.3125 101.820312 20.691406 99.113281 22.140625 C 96.40625 23.585938 93.738281 25.097656 91.105469 26.675781 C 88.472656 28.253906 85.882812 29.894531 83.332031 31.597656 C 80.777344 33.304688 78.269531 35.070312 75.804688 36.898438 C 73.339844 38.726562 70.921875 40.613281 68.550781 42.558594 C 66.179688 44.507812 63.855469 46.511719 61.582031 48.570312 C 59.308594 50.632812 57.085938 52.746094 54.917969 54.917969 C 52.746094 57.085938 50.632812 59.308594 48.570312 61.582031 C 46.511719 63.855469 44.507812 66.179688 42.558594 68.550781 C 40.613281 70.921875 38.726562 73.339844 36.898438 75.804688 C 35.070312 78.269531 33.304688 80.777344 31.597656 83.332031 C 29.894531 85.882812 28.253906 88.472656 26.675781 91.105469 C 25.097656 93.738281 23.585938 96.40625 22.140625 99.113281 C 20.691406 101.820312 19.3125 104.558594 18.003906 107.332031 C 16.691406 110.105469 15.445312 112.910156 14.273438 115.746094 C 13.097656 118.582031 11.996094 121.445312 10.960938 124.332031 C 9.925781 127.222656 8.964844 130.136719 8.074219 133.070312 C 7.183594 136.007812 6.363281 138.964844 5.621094 141.941406 C 4.875 144.917969 4.203125 147.910156 3.601562 150.921875 C 3.003906 153.929688 2.480469 156.953125 2.03125 159.988281 C 1.578125 163.023438 1.203125 166.066406 0.902344 169.121094 C 0.601562 172.175781 0.375 175.234375 0.226562 178.300781 C 0.0742188 181.363281 0 184.429688 0 187.5 C 0 190.570312 0.0742188 193.636719 0.226562 196.699219 C 0.375 199.765625 0.601562 202.824219 0.902344 205.878906 C 1.203125 208.933594 1.578125 211.976562 2.03125 215.011719 C 2.480469 218.046875 3.003906 221.070312 3.601562 224.078125 C 4.203125 227.089844 4.875 230.082031 5.621094 233.058594 C 6.363281 236.035156 7.183594 238.992188 8.074219 241.929688 C 8.964844 244.863281 9.925781 247.777344 10.960938 250.667969 C 11.996094 253.554688 13.097656 256.417969 14.273438 259.253906 C 15.445312 262.089844 16.691406 264.890625 18.003906 267.667969 C 19.3125 270.441406 20.691406 273.179688 22.140625 275.886719 C 23.585938 278.59375 25.097656 281.261719 26.675781 283.894531 C 28.253906 286.527344 29.894531 289.117188 31.597656 291.667969 C 33.304688 294.222656 35.070312 296.730469 36.898438 299.195312 C 38.726562 301.660156 40.613281 304.078125 42.558594 306.449219 C 44.507812 308.820312 46.511719 311.144531 48.570312 313.417969 C 50.632812 315.691406 52.746094 317.914062 54.917969 320.082031 C 57.085938 322.253906 59.308594 324.367188 61.582031 326.429688 C 63.855469 328.488281 66.179688 330.492188 68.550781 332.4375 C 70.921875 334.386719 73.339844 336.273438 75.804688 338.101562 C 78.269531 339.929688 80.777344 341.695312 83.332031 343.402344 C 85.882812 345.105469 88.472656 346.746094 91.105469 348.324219 C 93.738281 349.902344 96.40625 351.414062 99.113281 352.859375 C 101.820312 354.308594 104.558594 355.6875 107.332031 356.996094 C 110.105469 358.308594 112.910156 359.554688 115.746094 360.726562 C 118.582031 361.902344 121.445312 363.003906 124.332031 364.039062 C 127.222656 365.074219 130.136719 366.035156 133.070312 366.925781 C 136.007812 367.816406 138.964844 368.636719 141.941406 369.378906 C 144.917969 370.125 147.910156 370.796875 150.921875 371.398438 C 153.929688 371.996094 156.953125 372.519531 159.988281 372.96875 C 163.023438 373.421875 166.066406 373.796875 169.121094 374.097656 C 172.175781 374.398438 175.234375 374.625 178.300781 374.773438 C 181.363281 374.925781 184.429688 375 187.5 375 C 190.570312 375 193.636719 374.925781 196.699219 374.773438 C 199.765625 374.625 202.824219 374.398438 205.878906 374.097656 C 208.933594 373.796875 211.976562 373.421875 215.011719 372.96875 C 218.046875 372.519531 221.070312 371.996094 224.078125 371.398438 C 227.089844 370.796875 230.082031 370.125 233.058594 369.378906 C 236.035156 368.636719 238.992188 367.816406 241.929688 366.925781 C 244.863281 366.035156 247.777344 365.074219 250.667969 364.039062 C 253.554688 363.003906 256.417969 361.902344 259.253906 360.726562 C 262.089844 359.554688 264.890625 358.308594 267.667969 356.996094 C 270.441406 355.6875 273.179688 354.308594 275.886719 352.859375 C 278.59375 351.414062 281.261719 349.902344 283.894531 348.324219 C 286.527344 346.746094 289.117188 345.105469 291.667969 343.402344 C 294.222656 341.695312 296.730469 339.929688 299.195312 338.101562 C 301.660156 336.273438 304.078125 334.386719 306.449219 332.4375 C 308.820312 330.492188 311.144531 328.488281 313.417969 326.429688 C 315.691406 324.367188 317.914062 322.253906 320.082031 320.082031 C 322.253906 317.914062 324.367188 315.691406 326.429688 313.417969 C 328.488281 311.144531 330.492188 308.820312 332.4375 306.449219 C 334.386719 304.078125 336.273438 301.660156 338.101562 299.195312 C 339.929688 296.730469 341.695312 294.222656 343.402344 291.667969 C 345.105469 289.117188 346.746094 286.527344 348.324219 283.894531 C 349.902344 281.261719 351.414062 278.59375 352.859375 275.886719 C 354.308594 273.179688 355.6875 270.441406 356.996094 267.667969 C 358.308594 264.890625 359.554688 262.089844 360.726562 259.253906 C 361.902344 256.417969 363.003906 253.554688 364.039062 250.667969 C 365.074219 247.777344 366.035156 244.863281 366.925781 241.929688 C 367.816406 238.992188 368.636719 236.035156 369.378906 233.058594 C 370.125 230.082031 370.796875 227.089844 371.398438 224.078125 C 371.996094 221.070312 372.519531 218.046875 372.96875 215.011719 C 373.421875 211.976562 373.796875 208.933594 374.097656 205.878906 C 374.398438 202.824219 374.625 199.765625 374.773438 196.699219 C 374.925781 193.636719 375 190.570312 375 187.5 C 375 184.429688 374.925781 181.363281 374.773438 178.300781 C 374.625 175.234375 374.398438 172.175781 374.097656 169.121094 C 373.796875 166.066406 373.421875 163.023438 372.96875 159.988281 C 372.519531 156.953125 371.996094 153.929688 371.398438 150.921875 C 370.796875 147.910156 370.125 144.917969 369.378906 141.941406 C 368.636719 138.964844 367.816406 136.007812 366.925781 133.070312 C 366.035156 130.136719 365.074219 127.222656 364.039062 124.332031 C 363.003906 121.445312 361.902344 118.582031 360.726562 115.746094 C 359.554688 112.910156 358.308594 110.105469 356.996094 107.332031 C 355.6875 104.558594 354.308594 101.820312 352.859375 99.113281 C 351.414062 96.40625 349.902344 93.738281 348.324219 91.105469 C 346.746094 88.472656 345.105469 85.882812 343.402344 83.332031 C 341.695312 80.777344 339.929688 78.269531 338.101562 75.804688 C 336.273438 73.339844 334.386719 70.921875 332.4375 68.550781 C 330.492188 66.179688 328.488281 63.855469 326.429688 61.582031 C 324.367188 59.308594 322.253906 57.085938 320.082031 54.917969 C 317.914062 52.746094 315.691406 50.632812 313.417969 48.570312 C 311.144531 46.511719 308.820312 44.507812 306.449219 42.558594 C 304.078125 40.613281 301.660156 38.726562 299.195312 36.898438 C 296.730469 35.070312 294.222656 33.304688 291.667969 31.597656 C 289.117188 29.894531 286.527344 28.253906 283.894531 26.675781 C 281.261719 25.097656 278.59375 23.585938 275.886719 22.140625 C 273.179688 20.691406 270.441406 19.3125 267.667969 18.003906 C 264.890625 16.691406 262.089844 15.445312 259.253906 14.273438 C 256.417969 13.097656 253.554688 11.996094 250.667969 10.960938 C 247.777344 9.925781 244.863281 8.964844 241.929688 8.074219 C 238.992188 7.183594 236.035156 6.363281 233.058594 5.617188 C 230.082031 4.875 227.089844 4.203125 224.078125 3.601562 C 221.070312 3.003906 218.046875 2.480469 215.011719 2.03125 C 211.976562 1.578125 208.933594 1.203125 205.878906 0.902344 C 202.824219 0.601562 199.765625 0.375 196.699219 0.226562 C 193.636719 0.0742188 190.570312 0 187.5 0 Z M 187.5 0 "/><g style="fill:rgb(0%,29.019165%,67.83905%);fill-opacity:1;"><g transform="translate(141.559433, 297.607985)"><path style="stroke:none;" d="M 118.734375 -170.09375 C 104.929688 -170.09375 94.164062 -164.441406 86.4375 -153.140625 C 78.707031 -141.835938 74.84375 -126.257812 74.84375 -106.40625 C 74.84375 -65.113281 90.546875 -44.46875 121.953125 -44.46875 C 131.441406 -44.46875 140.640625 -45.785156 149.546875 -48.421875 C 158.453125 -51.066406 167.40625 -54.25 176.40625 -57.96875 L 176.40625 -8.953125 C 158.5 -1.023438 138.242188 2.9375 115.640625 2.9375 C 83.253906 2.9375 58.425781 -6.453125 41.15625 -25.234375 C 23.894531 -44.023438 15.265625 -71.175781 15.265625 -106.6875 C 15.265625 -128.90625 19.445312 -148.425781 27.8125 -165.25 C 36.175781 -182.082031 48.207031 -195.019531 63.90625 -204.0625 C 79.613281 -213.113281 98.082031 -217.640625 119.3125 -217.640625 C 142.5 -217.640625 164.660156 -212.601562 185.796875 -202.53125 L 168.046875 -156.890625 C 160.117188 -160.609375 152.191406 -163.738281 144.265625 -166.28125 C 136.335938 -168.820312 127.828125 -170.09375 118.734375 -170.09375 Z M 118.734375 -170.09375 "/></g></g><g style="fill:rgb(0%,29.019165%,67.83905%);fill-opacity:1;"><g transform="translate(38.39085, 297.607985)"><path style="stroke:none;" d="M 163.484375 -65.15625 C 163.484375 -51.851562 160.109375 -40.039062 153.359375 -29.71875 C 146.609375 -19.394531 136.875 -11.367188 124.15625 -5.640625 C 111.4375 0.078125 96.515625 2.9375 79.390625 2.9375 C 65.109375 2.9375 53.125 1.9375 43.4375 -0.0625 C 33.75 -2.070312 23.671875 -5.570312 13.203125 -10.5625 L 13.203125 -62.21875 C 24.265625 -56.550781 35.757812 -52.125 47.6875 -48.9375 C 59.625 -45.757812 70.585938 -44.171875 80.578125 -44.171875 C 89.179688 -44.171875 95.488281 -45.660156 99.5 -48.640625 C 103.507812 -51.628906 105.515625 -55.472656 105.515625 -60.171875 C 105.515625 -63.109375 104.707031 -65.675781 103.09375 -67.875 C 101.476562 -70.070312 98.882812 -72.296875 95.3125 -74.546875 C 91.75 -76.796875 82.238281 -81.394531 66.78125 -88.34375 C 52.78125 -94.707031 42.28125 -100.875 35.28125 -106.84375 C 28.289062 -112.8125 23.109375 -119.660156 19.734375 -127.390625 C 16.359375 -135.117188 14.671875 -144.265625 14.671875 -154.828125 C 14.671875 -174.585938 21.863281 -189.992188 36.25 -201.046875 C 50.632812 -212.109375 70.398438 -217.640625 95.546875 -217.640625 C 117.753906 -217.640625 140.398438 -212.503906 163.484375 -202.234375 L 145.734375 -157.46875 C 125.671875 -166.664062 108.351562 -171.265625 93.78125 -171.265625 C 86.25 -171.265625 80.769531 -169.941406 77.34375 -167.296875 C 73.914062 -164.660156 72.203125 -161.382812 72.203125 -157.46875 C 72.203125 -153.257812 74.378906 -149.492188 78.734375 -146.171875 C 83.085938 -142.847656 94.898438 -136.78125 114.171875 -127.96875 C 132.671875 -119.65625 145.515625 -110.726562 152.703125 -101.1875 C 159.890625 -91.644531 163.484375 -79.632812 163.484375 -65.15625 Z M 163.484375 -65.15625 "/></g></g><g clip-rule="nonzero" clip-path="url(#clip1)"><path style=" stroke:none;fill-rule:nonzero;fill:rgb(0%,29.019165%,67.83905%);fill-opacity:1;" d="M 260.117188 113.402344 C 251.703125 113.402344 243.574219 114.613281 235.882812 116.859375 L 241.65625 128.800781 C 247.554688 127.269531 253.738281 126.453125 260.117188 126.453125 C 300.542969 126.453125 333.3125 159.222656 333.3125 199.648438 C 333.3125 223.535156 321.867188 244.75 304.160156 258.109375 L 309.933594 270.054688 C 331.976562 254.433594 346.363281 228.71875 346.363281 199.648438 C 346.363281 152.015625 307.75 113.402344 260.117188 113.402344 "/></g><g clip-rule="nonzero" clip-path="url(#clip2)"><path style=" stroke:none;fill-rule:nonzero;fill:rgb(0%,29.019165%,67.83905%);fill-opacity:1;" d="M 287.066406 267.71875 C 278.726562 271.027344 269.632812 272.84375 260.117188 272.84375 C 219.691406 272.84375 186.921875 240.074219 186.921875 199.648438 C 186.921875 172.558594 201.640625 148.902344 223.515625 136.25 L 217.824219 124.472656 C 191.589844 139.265625 173.871094 167.386719 173.871094 199.648438 C 173.871094 247.28125 212.484375 285.894531 260.117188 285.894531 C 271.667969 285.894531 282.6875 283.613281 292.757812 279.496094 L 287.066406 267.71875 "/></g><g clip-rule="nonzero" clip-path="url(#clip3)"><path style=" stroke:none;fill-rule:nonzero;fill:rgb(0%,29.019165%,67.83905%);fill-opacity:1;" d="M 257.734375 146.675781 C 257.734375 144.246094 255.898438 142.277344 253.632812 142.277344 C 251.371094 142.277344 249.53125 144.246094 249.53125 146.675781 L 249.53125 203.878906 C 249.53125 206.308594 251.371094 208.277344 253.632812 208.277344 C 255.898438 208.277344 257.734375 206.308594 257.734375 203.878906 L 257.734375 146.675781 "/></g><g clip-rule="nonzero" clip-path="url(#clip4)"><path style=" stroke:none;fill-rule:nonzero;fill:rgb(0%,29.019165%,67.83905%);fill-opacity:1;" d="M 303.378906 232.589844 C 305.382812 233.9375 305.980469 236.554688 304.714844 238.433594 C 303.445312 240.3125 300.796875 240.738281 298.792969 239.386719 L 251.613281 207.574219 C 249.609375 206.226562 249.015625 203.609375 250.28125 201.730469 C 251.546875 199.855469 254.195312 199.425781 256.199219 200.777344 L 303.378906 232.589844 "/></g></g></svg>